<svg width="18" height="18" viewBox="0 0 18 18" fill="none" xmlns="http://www.w3.org/2000/svg">
<path d="M11.4993 14.6667C11.4993 14.4457 11.4116 14.2337 11.2553 14.0774C11.099 13.9211 10.887 13.8333 10.666 13.8333H9.83268V12.1667H13.166C13.608 12.1667 14.032 11.9911 14.3445 11.6785C14.6571 11.366 14.8327 10.942 14.8327 10.5V2.16667C14.8327 1.72464 14.6571 1.30072 14.3445 0.988155C14.032 0.675595 13.608 0.5 13.166 0.5H4.83268C4.39066 0.5 3.96673 0.675595 3.65417 0.988155C3.34161 1.30072 3.16602 1.72464 3.16602 2.16667V10.5C3.16602 10.942 3.34161 11.366 3.65417 11.6785C3.96673 11.9911 4.39066 12.1667 4.83268 12.1667H8.16602V13.8333H7.33268C7.11167 13.8333 6.89971 13.9211 6.74343 14.0774C6.58715 14.2337 6.49935 14.4457 6.49935 14.6667H0.666016V16.3333H6.49935C6.49935 16.5543 6.58715 16.7663 6.74343 16.9226C6.89971 17.0789 7.11167 17.1667 7.33268 17.1667H10.666C10.887 17.1667 11.099 17.0789 11.2553 16.9226C11.4116 16.7663 11.4993 16.5543 11.4993 16.3333H17.3327V14.6667H11.4993ZM5.87435 6.4L6.84102 5.43333L8.16602 6.75L11.1577 3.76667L12.1243 4.94167L8.16602 8.9L5.87435 6.4Z" fill="#858585"/>
</svg>
