<svg width="19" height="15" viewBox="0 0 19 15" fill="none" xmlns="http://www.w3.org/2000/svg">
<path d="M1.58333 7.5C1.58333 5.28333 2.85 3.38333 4.75 2.5125V0.770833C1.97917 1.8 0 4.4125 0 7.5C0 10.5875 1.97917 13.2 4.75 14.2292V12.4875C2.85 11.6167 1.58333 9.71667 1.58333 7.5ZM11.875 0.375C7.91667 0.375 4.75 3.54167 4.75 7.5C4.75 11.4583 7.91667 14.625 11.875 14.625C15.8333 14.625 19 11.4583 19 7.5C19 3.54167 15.8333 0.375 11.875 0.375ZM15.8333 8.29167H12.6667V11.4583H11.0833V8.29167H7.91667V6.70833H11.0833V3.54167H12.6667V6.70833H15.8333V8.29167Z" fill="#858585"/>
</svg>
