<svg width="15" height="17" viewBox="0 0 15 17" fill="none" xmlns="http://www.w3.org/2000/svg">
<path d="M9.08333 8.10384C9.34324 8.10384 9.60061 8.05265 9.84073 7.95319C10.0809 7.85372 10.299 7.70794 10.4828 7.52416C10.6666 7.34037 10.8124 7.12219 10.9118 6.88207C11.0113 6.64195 11.0625 6.38458 11.0625 6.12467C11.0625 5.59977 10.854 5.09636 10.4828 4.72519C10.1117 4.35403 9.60824 4.14551 9.08333 4.14551C8.55843 4.14551 8.05502 4.35403 7.68385 4.72519C7.31269 5.09636 7.10417 5.59977 7.10417 6.12467C7.10417 6.38458 7.15536 6.64195 7.25482 6.88207C7.35428 7.12219 7.50007 7.34037 7.68385 7.52416C8.05502 7.89532 8.55843 8.10384 9.08333 8.10384ZM9.08333 0.583008C12.1392 0.583008 14.625 3.06092 14.625 6.12467C14.625 10.2809 9.08333 16.4163 9.08333 16.4163C9.08333 16.4163 3.54167 10.2809 3.54167 6.12467C3.54167 4.65493 4.12552 3.24539 5.16478 2.20612C6.20405 1.16686 7.61359 0.583008 9.08333 0.583008ZM1.95833 6.12467C1.95833 9.68717 5.98 14.5638 6.70833 15.4743L5.91667 16.4163C5.91667 16.4163 0.375 10.2809 0.375 6.12467C0.375 3.61509 2.04542 1.49342 4.33333 0.812591C2.87667 2.11884 1.95833 4.01092 1.95833 6.12467Z" fill="#858585"/>
</svg>
