<svg width="13" height="17" viewBox="0 0 13 17" fill="none" xmlns="http://www.w3.org/2000/svg">
<path d="M7.29102 10.083C4.63102 10.083 3.76018 11.1518 3.47518 11.8563C4.32227 12.2205 4.91602 13.0597 4.91602 14.0413C4.91602 14.6712 4.66579 15.2753 4.22039 15.7207C3.775 16.1661 3.1709 16.4163 2.54102 16.4163C1.91113 16.4163 1.30704 16.1661 0.861637 15.7207C0.416238 15.2753 0.166016 14.6712 0.166016 14.0413C0.166016 13.0043 0.823099 12.1255 1.74935 11.8009V5.19842C0.823099 4.87384 0.166016 3.99509 0.166016 2.95801C0.166016 2.32812 0.416238 1.72403 0.861637 1.27863C1.30704 0.83323 1.91113 0.583008 2.54102 0.583008C3.1709 0.583008 3.775 0.83323 4.22039 1.27863C4.66579 1.72403 4.91602 2.32812 4.91602 2.95801C4.91602 3.99509 4.25893 4.87384 3.33268 5.19842V9.38634C4.02935 8.87176 5.04268 8.49967 6.49935 8.49967C8.6131 8.49967 9.31768 7.43884 9.54727 6.73426C8.69227 6.37801 8.08268 5.53092 8.08268 4.54134C8.08268 3.91145 8.3329 3.30736 8.7783 2.86196C9.2237 2.41656 9.82779 2.16634 10.4577 2.16634C11.0876 2.16634 11.6917 2.41656 12.1371 2.86196C12.5825 3.30736 12.8327 3.91145 12.8327 4.54134C12.8327 5.60217 12.136 6.52051 11.1781 6.80551C10.9723 7.93759 10.2043 10.083 7.29102 10.083ZM2.54102 13.2497C2.33105 13.2497 2.12969 13.3331 1.98122 13.4815C1.83276 13.63 1.74935 13.8314 1.74935 14.0413C1.74935 14.2513 1.83276 14.4527 1.98122 14.6011C2.12969 14.7496 2.33105 14.833 2.54102 14.833C2.75098 14.833 2.95234 14.7496 3.10081 14.6011C3.24927 14.4527 3.33268 14.2513 3.33268 14.0413C3.33268 13.8314 3.24927 13.63 3.10081 13.4815C2.95234 13.3331 2.75098 13.2497 2.54102 13.2497ZM2.54102 2.16634C2.33105 2.16634 2.12969 2.24975 1.98122 2.39822C1.83276 2.54668 1.74935 2.74804 1.74935 2.95801C1.74935 3.16797 1.83276 3.36933 1.98122 3.5178C2.12969 3.66627 2.33105 3.74967 2.54102 3.74967C2.75098 3.74967 2.95234 3.66627 3.10081 3.5178C3.24927 3.36933 3.33268 3.16797 3.33268 2.95801C3.33268 2.74804 3.24927 2.54668 3.10081 2.39822C2.95234 2.24975 2.75098 2.16634 2.54102 2.16634ZM10.4577 3.74967C10.2477 3.74967 10.0464 3.83308 9.89789 3.98155C9.74942 4.13001 9.66602 4.33138 9.66602 4.54134C9.66602 4.7513 9.74942 4.95267 9.89789 5.10113C10.0464 5.2496 10.2477 5.33301 10.4577 5.33301C10.6676 5.33301 10.869 5.2496 11.0175 5.10113C11.1659 4.95267 11.2493 4.7513 11.2493 4.54134C11.2493 4.33138 11.1659 4.13001 11.0175 3.98155C10.869 3.83308 10.6676 3.74967 10.4577 3.74967Z" fill="#858585"/>
</svg>
