<svg width="15" height="15" viewBox="0 0 15 15" fill="none" xmlns="http://www.w3.org/2000/svg">
<path d="M3.24083 6.54208C4.38083 8.7825 6.2175 10.6192 8.45792 11.7592L10.1996 10.0175C10.4213 9.79583 10.73 9.7325 11.0071 9.81958C11.8938 10.1125 12.8438 10.2708 13.8333 10.2708C14.0433 10.2708 14.2447 10.3542 14.3931 10.5027C14.5416 10.6512 14.625 10.8525 14.625 11.0625V13.8333C14.625 14.0433 14.5416 14.2447 14.3931 14.3931C14.2447 14.5416 14.0433 14.625 13.8333 14.625C10.264 14.625 6.84078 13.2071 4.31685 10.6831C1.79293 8.15922 0.375 4.73604 0.375 1.16667C0.375 0.956704 0.458407 0.75534 0.606874 0.606874C0.75534 0.458407 0.956704 0.375 1.16667 0.375H3.9375C4.14746 0.375 4.34883 0.458407 4.49729 0.606874C4.64576 0.75534 4.72917 0.956704 4.72917 1.16667C4.72917 2.15625 4.8875 3.10625 5.18042 3.99292C5.2675 4.27 5.20417 4.57875 4.9825 4.80042L3.24083 6.54208Z" fill="#858585"/>
</svg>
