<svg width="19" height="19" viewBox="0 0 19 19" fill="none" xmlns="http://www.w3.org/2000/svg">
<path d="M16.6243 13.4587V6.33366H5.54102V13.4587H16.6243ZM16.6243 2.37533C17.0443 2.37533 17.447 2.54214 17.7439 2.83907C18.0409 3.13601 18.2077 3.53873 18.2077 3.95866V13.4587C18.2077 13.8786 18.0409 14.2813 17.7439 14.5782C17.447 14.8752 17.0443 15.042 16.6243 15.042H5.54102C4.66227 15.042 3.95768 14.3295 3.95768 13.4587V3.95866C3.95768 3.53873 4.1245 3.13601 4.42143 2.83907C4.71836 2.54214 5.12109 2.37533 5.54102 2.37533H6.33268V0.791992H7.91602V2.37533H14.2493V0.791992H15.8327V2.37533H16.6243ZM2.37435 16.6253H13.4577V18.2087H2.37435C1.4956 18.2087 0.791016 17.4962 0.791016 16.6253V7.12533H2.37435V16.6253ZM15.041 11.8753H11.8743V8.70866H15.041V11.8753Z" fill="#858585"/>
</svg>
