<svg width="19" height="12" viewBox="0 0 19 12" fill="none" xmlns="http://www.w3.org/2000/svg">
<path d="M9.5 0.354492C10.2349 0.354492 10.9396 0.646419 11.4593 1.16605C11.9789 1.68568 12.2708 2.39046 12.2708 3.12533C12.2708 3.8602 11.9789 4.56497 11.4593 5.0846C10.9396 5.60423 10.2349 5.89616 9.5 5.89616C8.76513 5.89616 8.06036 5.60423 7.54073 5.0846C7.02109 4.56497 6.72917 3.8602 6.72917 3.12533C6.72917 2.39046 7.02109 1.68568 7.54073 1.16605C8.06036 0.646419 8.76513 0.354492 9.5 0.354492ZM3.95833 2.33366C4.40167 2.33366 4.81333 2.45241 5.16958 2.66616C5.05083 3.79824 5.38333 4.92241 6.06417 5.80116C5.66833 6.56116 4.87667 7.08366 3.95833 7.08366C3.32844 7.08366 2.72435 6.83344 2.27895 6.38804C1.83356 5.94264 1.58333 5.33855 1.58333 4.70866C1.58333 4.07877 1.83356 3.47468 2.27895 3.02928C2.72435 2.58388 3.32844 2.33366 3.95833 2.33366ZM15.0417 2.33366C15.6716 2.33366 16.2756 2.58388 16.721 3.02928C17.1664 3.47468 17.4167 4.07877 17.4167 4.70866C17.4167 5.33855 17.1664 5.94264 16.721 6.38804C16.2756 6.83344 15.6716 7.08366 15.0417 7.08366C14.1233 7.08366 13.3317 6.56116 12.9358 5.80116C13.6167 4.92241 13.9492 3.79824 13.8304 2.66616C14.1867 2.45241 14.5983 2.33366 15.0417 2.33366ZM4.35417 10.4482C4.35417 8.80949 6.65792 7.47949 9.5 7.47949C12.3421 7.47949 14.6458 8.80949 14.6458 10.4482V11.8337H4.35417V10.4482ZM0 11.8337V10.6462C0 9.54574 1.49625 8.61949 3.52292 8.35033C3.05583 8.88866 2.77083 9.63283 2.77083 10.4482V11.8337H0ZM19 11.8337H16.2292V10.4482C16.2292 9.63283 15.9442 8.88866 15.4771 8.35033C17.5037 8.61949 19 9.54574 19 10.6462V11.8337Z" fill="#858585"/>
</svg>
