<svg width="16" height="18" viewBox="0 0 16 18" fill="none" xmlns="http://www.w3.org/2000/svg">
<path d="M7.99935 0.75C10.0252 0.75 11.666 2.39083 11.666 4.41667C11.666 6.4425 10.0252 8.08333 7.99935 8.08333C5.97352 8.08333 4.33268 6.4425 4.33268 4.41667C4.33268 2.39083 5.97352 0.75 7.99935 0.75ZM11.666 10.4117C11.666 11.3833 11.4093 13.6475 9.65852 16.1775L8.91602 11.75L9.77768 10.0267C9.20935 9.9625 8.61352 9.91667 7.99935 9.91667C7.38518 9.91667 6.78935 9.9625 6.22102 10.0267L7.08268 11.75L6.34018 16.1775C4.58935 13.6475 4.33268 11.3833 4.33268 10.4117C2.14185 11.0533 0.666016 12.2083 0.666016 13.5833V17.25H15.3327V13.5833C15.3327 12.2083 13.866 11.0533 11.666 10.4117Z" fill="#858585"/>
</svg>
